<svg width="32" height="32" viewBox="0 0 32 32" fill="none" xmlns="http://www.w3.org/2000/svg">
<path d="M1.74214 10.1913C4.95021 2.31691 13.9343 -1.46586 21.8087 1.74221C29.683 4.95029 33.4658 13.9344 30.2577 21.8087C27.0496 29.6831 18.0656 33.4659 10.1912 30.2578C2.31684 27.0497 -1.46594 18.0656 1.74214 10.1913Z" fill="url(#paint0_linear_13_5499)"/>
<path d="M23 12.5C23 16.366 19.866 19.5 16 19.5C12.134 19.5 9 16.366 9 12.5C9 8.63401 12.134 5.5 16 5.5C19.866 5.5 23 8.63401 23 12.5Z" fill="url(#paint1_angular_13_5499)"/>
<path d="M23 12.5C23 16.366 19.866 19.5 16 19.5C12.134 19.5 9 16.366 9 12.5C9 8.63401 12.134 5.5 16 5.5C19.866 5.5 23 8.63401 23 12.5Z" fill="url(#paint2_angular_13_5499)"/>
<path d="M9 19.5C9 15.634 12.134 12.5 16 12.5C19.866 12.5 23 15.634 23 19.5C23 23.366 19.866 26.5 16 26.5C12.134 26.5 9 23.366 9 19.5Z" fill="url(#paint3_angular_13_5499)"/>
<path d="M9 19.5C9 15.634 12.134 12.5 16 12.5C19.866 12.5 23 15.634 23 19.5C23 23.366 19.866 26.5 16 26.5C12.134 26.5 9 23.366 9 19.5Z" fill="url(#paint4_angular_13_5499)"/>
<defs>
<linearGradient id="paint0_linear_13_5499" x1="16.6123" y1="0.612341" x2="15.3876" y2="31.3877" gradientUnits="userSpaceOnUse">
<stop stop-color="#0072DE"/>
<stop offset="1" stop-color="#80C1FF"/>
</linearGradient>
<radialGradient id="paint1_angular_13_5499" cx="0" cy="0" r="1" gradientUnits="userSpaceOnUse" gradientTransform="translate(16 12.5) rotate(90) scale(7)">
<stop stop-color="white"/>
<stop offset="1" stop-color="white" stop-opacity="0.05"/>
</radialGradient>
<radialGradient id="paint2_angular_13_5499" cx="0" cy="0" r="1" gradientUnits="userSpaceOnUse" gradientTransform="translate(16 12.5) rotate(90) scale(7)">
<stop stop-color="white"/>
<stop offset="1" stop-color="white" stop-opacity="0.05"/>
</radialGradient>
<radialGradient id="paint3_angular_13_5499" cx="0" cy="0" r="1" gradientUnits="userSpaceOnUse" gradientTransform="translate(16 19.5) rotate(-90) scale(7)">
<stop stop-color="white"/>
<stop offset="1" stop-color="white" stop-opacity="0"/>
</radialGradient>
<radialGradient id="paint4_angular_13_5499" cx="0" cy="0" r="1" gradientUnits="userSpaceOnUse" gradientTransform="translate(16 19.5) rotate(-90) scale(7)">
<stop stop-color="white"/>
<stop offset="1" stop-color="white" stop-opacity="0"/>
</radialGradient>
</defs>
</svg>
